<svg width="230" height="262" xmlns="http://www.w3.org/2000/svg" xmlns:xlink="http://www.w3.org/1999/xlink" xml:space="preserve" overflow="hidden"><defs><clipPath id="clip0"><rect x="0" y="0" width="230" height="262"/></clipPath><linearGradient x1="179.016" y1="264.871" x2="179.016" y2="299.839" gradientUnits="userSpaceOnUse" spreadMethod="reflect" id="fill1"><stop offset="0" stop-color="#AFAFAF" stop-opacity="1"/><stop offset="0.31" stop-color="#767171" stop-opacity="1"/><stop offset="1" stop-color="#3B3838" stop-opacity="1"/></linearGradient><linearGradient x1="179.016" y1="264.871" x2="179.016" y2="299.839" gradientUnits="userSpaceOnUse" spreadMethod="reflect" id="fill2"><stop offset="0" stop-color="#CFCFCF" stop-opacity="1"/><stop offset="0.31" stop-color="#ADAAAA" stop-opacity="1"/><stop offset="1" stop-color="#898888" stop-opacity="1"/></linearGradient><linearGradient x1="178.755" y1="215.811" x2="178.755" y2="241.906" gradientUnits="userSpaceOnUse" spreadMethod="reflect" id="fill3"><stop offset="0" stop-color="#595959" stop-opacity="1"/><stop offset="0.58" stop-color="#000000" stop-opacity="1"/><stop offset="1" stop-color="#000000" stop-opacity="1"/></linearGradient></defs><g clip-path="url(#clip0)"><path d="M63.1514 93.4223 291.749 93.4223 291.749 251.04 63.1514 251.04Z" stroke="#222A35" stroke-width="1.04382" stroke-linecap="butt" stroke-linejoin="miter" stroke-miterlimit="8" stroke-opacity="1" fill="#F2F2F2" fill-rule="nonzero" fill-opacity="1" transform="matrix(1.00156 0 0 1 -62.7273 -40.7092)"/><path d="M74.8944 105.165 168.839 105.165 168.839 143.787 74.8944 143.787Z" stroke="#002060" stroke-width="0.521912" stroke-linecap="butt" stroke-linejoin="miter" stroke-miterlimit="8" stroke-opacity="1" fill="#0070C0" fill-rule="nonzero" fill-opacity="1" transform="matrix(1.00156 0 0 1 -62.7273 -40.7092)"/><text fill="#FFFFFF" fill-opacity="1" font-family="Calibri,Calibri_MSFontService,sans-serif" font-style="normal" font-variant="normal" font-weight="400" font-stretch="normal" font-size="28" text-anchor="start" direction="ltr" writing-mode="lr-tb" unicode-bidi="normal" text-decoration="none" transform="matrix(0.522727 0 0 0.521912 36.0797 88)">PBKDF2</text><path d="M74.8944 42.0139 168.839 42.0139 168.839 85.8546 74.8944 85.8546Z" stroke="#4472C4" stroke-width="0.521912" stroke-linecap="butt" stroke-linejoin="miter" stroke-miterlimit="8" stroke-opacity="1" fill="#002060" fill-rule="nonzero" fill-opacity="1" transform="matrix(1.00156 0 0 1 -62.7273 -40.7092)"/><text fill="#FFFFFF" fill-opacity="1" font-family="Calibri,Calibri_MSFontService,sans-serif" font-style="normal" font-variant="normal" font-weight="400" font-stretch="normal" font-size="28" text-anchor="start" direction="ltr" writing-mode="lr-tb" unicode-bidi="normal" text-decoration="none" transform="matrix(0.522727 0 0 0.521912 40.8443 19)">User’s</text><text fill="#FFFFFF" fill-opacity="1" font-family="Calibri,Calibri_MSFontService,sans-serif" font-style="normal" font-variant="normal" font-weight="400" font-stretch="normal" font-size="28" text-anchor="start" direction="ltr" writing-mode="lr-tb" unicode-bidi="normal" text-decoration="none" transform="matrix(0.522727 0 0 0.521912 31.0171 37)">Password</text><path d="M74.8944 161.532 168.839 161.532 168.839 200.675 74.8944 200.675Z" stroke="#002060" stroke-width="0.521912" stroke-linecap="butt" stroke-linejoin="miter" stroke-miterlimit="8" stroke-opacity="1" fill="#0070C0" fill-rule="nonzero" fill-opacity="1" transform="matrix(1.00156 0 0 1 -62.7273 -40.7092)"/><text fill="#FFFFFF" fill-opacity="1" font-family="Calibri,Calibri_MSFontService,sans-serif" font-style="normal" font-variant="normal" font-weight="400" font-stretch="normal" font-size="28" text-anchor="start" direction="ltr" writing-mode="lr-tb" unicode-bidi="normal" text-decoration="none" transform="matrix(0.522727 0 0 0.521912 31.0171 136)">Password </text><text fill="#FFFFFF" fill-opacity="1" font-family="Calibri,Calibri_MSFontService,sans-serif" font-style="normal" font-variant="normal" font-weight="400" font-stretch="normal" font-size="28" text-anchor="start" direction="ltr" writing-mode="lr-tb" unicode-bidi="normal" text-decoration="none" transform="matrix(0.522727 0 0 0.521912 48.6121 154)">Key</text><path d="M188.149 105.165 282.094 105.165 282.094 143.787 188.149 143.787Z" stroke="#002060" stroke-width="0.521912" stroke-linecap="butt" stroke-linejoin="miter" stroke-miterlimit="8" stroke-opacity="1" fill="#00B0F0" fill-rule="nonzero" fill-opacity="1" transform="matrix(1.00156 0 0 1 -62.7273 -40.7092)"/><text fill="#FFFFFF" fill-opacity="1" font-family="Calibri,Calibri_MSFontService,sans-serif" font-style="normal" font-variant="normal" font-weight="400" font-stretch="normal" font-size="28" text-anchor="start" direction="ltr" writing-mode="lr-tb" unicode-bidi="normal" text-decoration="none" transform="matrix(0.522727 0 0 0.521912 138.172 88)">Data Secret</text><path d="M188.149 42.0139 282.094 42.0139 282.094 85.8546 188.149 85.8546Z" stroke="#4472C4" stroke-width="0.521912" stroke-linecap="butt" stroke-linejoin="miter" stroke-miterlimit="8" stroke-opacity="1" fill="#002060" fill-rule="nonzero" fill-opacity="1" transform="matrix(1.00156 0 0 1 -62.7273 -40.7092)"/><text fill="#FFFFFF" fill-opacity="1" font-family="Calibri,Calibri_MSFontService,sans-serif" font-style="normal" font-variant="normal" font-weight="400" font-stretch="normal" font-size="28" text-anchor="start" direction="ltr" writing-mode="lr-tb" unicode-bidi="normal" text-decoration="none" transform="matrix(0.522727 0 0 0.521912 147.419 19)">Random</text><text fill="#FFFFFF" fill-opacity="1" font-family="Calibri,Calibri_MSFontService,sans-serif" font-style="normal" font-variant="normal" font-weight="400" font-stretch="normal" font-size="28" text-anchor="start" direction="ltr" writing-mode="lr-tb" unicode-bidi="normal" text-decoration="none" transform="matrix(0.522727 0 0 0.521912 141.826 37)">Generator</text><path d="M74.8944 269.242C74.8944 271.655 121.511 273.613 179.016 273.613 236.521 273.613 283.137 271.655 283.137 269.242L283.137 295.468C283.137 297.881 236.521 299.839 179.016 299.839 121.511 299.839 74.8944 297.881 74.8944 295.468Z" fill="url(#fill1)" fill-rule="evenodd" transform="matrix(1.00156 0 0 1 -62.7273 -40.7092)"/><path d="M74.8944 269.242C74.8944 266.828 121.511 264.871 179.016 264.871 236.521 264.871 283.137 266.828 283.137 269.242 283.137 271.655 236.521 273.613 179.016 273.613 121.511 273.613 74.8944 271.655 74.8944 269.242Z" fill="url(#fill2)" fill-rule="evenodd" transform="matrix(1.00156 0 0 1 -62.7273 -40.7092)"/><path d="M283.137 269.242C283.137 271.655 236.521 273.613 179.016 273.613 121.511 273.613 74.8944 271.655 74.8944 269.242 74.8944 266.828 121.511 264.871 179.016 264.871 236.521 264.871 283.137 266.828 283.137 269.242L283.137 295.468C283.137 297.881 236.521 299.839 179.016 299.839 121.511 299.839 74.8944 297.881 74.8944 295.468L74.8944 269.242" stroke="#A5A5A5" stroke-width="0.521912" stroke-linecap="butt" stroke-linejoin="miter" stroke-miterlimit="8" stroke-opacity="1" fill="none" fill-rule="evenodd" transform="matrix(1.00156 0 0 1 -62.7273 -40.7092)"/><text fill="#FFFFFF" fill-opacity="1" font-family="Calibri,Calibri_MSFontService,sans-serif" font-style="normal" font-variant="normal" font-weight="400" font-stretch="normal" font-size="28" text-anchor="start" direction="ltr" writing-mode="lr-tb" unicode-bidi="normal" text-decoration="none" transform="matrix(0.522727 0 0 0.521912 54.1985 248)">HTML5 Local Storage</text><path d="M74.3725 215.811 283.137 215.811 283.137 241.906 74.3725 241.906Z" stroke="#000000" stroke-width="0.521912" stroke-linecap="butt" stroke-linejoin="miter" stroke-miterlimit="8" stroke-opacity="1" fill="url(#fill3)" fill-rule="nonzero" transform="matrix(1.00156 0 0 1 -62.7273 -40.7092)"/><text fill="#FFFFFF" fill-opacity="1" font-family="Calibri,Calibri_MSFontService,sans-serif" font-style="normal" font-variant="normal" font-weight="400" font-stretch="normal" font-size="28" text-anchor="start" direction="ltr" writing-mode="lr-tb" unicode-bidi="normal" text-decoration="none" transform="matrix(0.522727 0 0 0.521912 58.3212 193)">AES </text><text fill="#FFFFFF" fill-opacity="1" font-family="Calibri,Calibri_MSFontService,sans-serif" font-style="normal" font-variant="normal" font-weight="400" font-stretch="normal" font-size="28" text-anchor="start" direction="ltr" writing-mode="lr-tb" unicode-bidi="normal" text-decoration="none" transform="matrix(0.522727 0 0 0.521912 83.7937 193)">256 Encryption</text><path d="M235.382 85.5936 235.382 99.5423 234.339 99.5423 234.339 85.5936ZM237.992 98.4984 234.861 104.761 231.729 98.4984Z" fill="#404040" fill-rule="nonzero" fill-opacity="1" transform="matrix(1.00156 0 0 1 -62.7273 -40.7092)"/><path d="M122.127 143.526 122.127 155.82 121.084 155.82 121.084 143.526ZM124.737 154.776 121.606 161.039 118.474 154.776Z" fill="#404040" fill-rule="nonzero" fill-opacity="1" transform="matrix(1.00156 0 0 1 -62.7273 -40.7092)"/><path d="M122.127 200.414 122.127 209.903 121.084 209.903 121.084 200.414ZM124.737 208.859 121.606 215.122 118.474 208.859Z" fill="#404040" fill-rule="nonzero" fill-opacity="1" transform="matrix(1.00156 0 0 1 -62.7273 -40.7092)"/><path d="M235.382 200.414 235.382 209.903 234.339 209.903 234.339 200.414ZM237.992 208.859 234.861 215.122 231.729 208.859Z" fill="#404040" fill-rule="nonzero" fill-opacity="1" transform="matrix(1.00156 0 0 1 -62.7273 -40.7092)"/><path d="M179.016 241.635 179.354 259.433 178.31 259.453 177.972 241.655ZM181.943 258.339 178.931 264.661 175.681 258.458Z" fill="#404040" fill-rule="nonzero" fill-opacity="1" transform="matrix(1.00156 0 0 1 -62.7273 -40.7092)"/><path d="M122.127 85.5936 122.127 99.4311 121.084 99.4311 121.084 85.5936ZM124.737 98.3873 121.606 104.65 118.474 98.3873Z" fill="#404040" fill-rule="nonzero" fill-opacity="1" transform="matrix(1.00156 0 0 1 -62.7273 -40.7092)"/><path d="M188.149 161.532 282.094 161.532 282.094 200.675 188.149 200.675Z" stroke="#002060" stroke-width="0.521912" stroke-linecap="butt" stroke-linejoin="miter" stroke-miterlimit="8" stroke-opacity="1" fill="#00B0F0" fill-rule="nonzero" fill-opacity="1" transform="matrix(1.00156 0 0 1 -62.7273 -40.7092)"/><text fill="#FFFFFF" fill-opacity="1" font-family="Calibri,Calibri_MSFontService,sans-serif" font-style="normal" font-variant="normal" font-weight="400" font-stretch="normal" font-size="28" text-anchor="start" direction="ltr" writing-mode="lr-tb" unicode-bidi="normal" text-decoration="none" transform="matrix(0.522727 0 0 0.521912 140.161 136)">Encryption</text><text fill="#FFFFFF" fill-opacity="1" font-family="Calibri,Calibri_MSFontService,sans-serif" font-style="normal" font-variant="normal" font-weight="400" font-stretch="normal" font-size="28" text-anchor="start" direction="ltr" writing-mode="lr-tb" unicode-bidi="normal" text-decoration="none" transform="matrix(0.522727 0 0 0.521912 153.339 154)">Config</text><path d="M235.382 143.526 235.382 155.692 234.339 155.692 234.339 143.526ZM237.992 154.648 234.861 160.911 231.729 154.648Z" fill="#404040" fill-rule="nonzero" fill-opacity="1" transform="matrix(1.00156 0 0 1 -62.7273 -40.7092)"/></g></svg>