<svg width="297" height="240" xmlns="http://www.w3.org/2000/svg" xmlns:xlink="http://www.w3.org/1999/xlink" xml:space="preserve" overflow="hidden"><defs><clipPath id="clip0"><rect x="0" y="0" width="297" height="240"/></clipPath><linearGradient x1="286.473" y1="106.206" x2="286.473" y2="119.364" gradientUnits="userSpaceOnUse" spreadMethod="reflect" id="fill1"><stop offset="0" stop-color="#AFAFAF" stop-opacity="1"/><stop offset="0.5" stop-color="#A5A5A5" stop-opacity="1"/><stop offset="1" stop-color="#929292" stop-opacity="1"/></linearGradient><linearGradient x1="366.363" y1="92.2956" x2="340.798" y2="92.2956" gradientUnits="userSpaceOnUse" spreadMethod="reflect" id="fill2"><stop offset="0" stop-color="#AFAFAF" stop-opacity="1"/><stop offset="0.5" stop-color="#A5A5A5" stop-opacity="1"/><stop offset="1" stop-color="#929292" stop-opacity="1"/></linearGradient></defs><g clip-path="url(#clip0)"><path d="M197.373 66.1671 493.621 66.1671 493.621 280.082 197.373 280.082Z" stroke="#222A35" stroke-width="0.751899" stroke-linecap="butt" stroke-linejoin="miter" stroke-miterlimit="8" stroke-opacity="1" fill="#F2F2F2" fill-rule="nonzero" fill-opacity="1" transform="matrix(1 0 0 1.0006 -196.997 -40.627)"/><path d="M209.592 122.372 353.58 122.372 353.58 143.425 209.592 143.425Z" stroke="#002060" stroke-width="0.375949" stroke-linecap="butt" stroke-linejoin="miter" stroke-miterlimit="8" stroke-opacity="1" fill="#C55A11" fill-rule="nonzero" fill-opacity="1" transform="matrix(1 0 0 1.0006 -196.997 -40.627)"/><text fill="#FFFFFF" fill-opacity="1" font-family="Calibri,Calibri_MSFontService,sans-serif" font-style="normal" font-variant="normal" font-weight="400" font-stretch="normal" font-size="28" text-anchor="start" direction="ltr" writing-mode="lr-tb" unicode-bidi="normal" text-decoration="none" transform="matrix(0.375949 0 0 0.376176 26.4082 96)">Encryption Module Factory</text><path d="M209.592 159.215 480.651 159.215 480.651 180.644 209.592 180.644Z" stroke="#002060" stroke-width="0.375949" stroke-linecap="butt" stroke-linejoin="miter" stroke-miterlimit="8" stroke-opacity="1" fill="#C55A11" fill-rule="nonzero" fill-opacity="1" transform="matrix(1 0 0 1.0006 -196.997 -40.627)"/><text fill="#FFFFFF" fill-opacity="1" font-family="Calibri,Calibri_MSFontService,sans-serif" font-style="normal" font-variant="normal" font-weight="400" font-stretch="normal" font-size="28" text-anchor="start" direction="ltr" writing-mode="lr-tb" unicode-bidi="normal" text-decoration="none" transform="matrix(0.375949 0 0 0.376176 86.7612 133)">Encryption Module Interface</text><path d="M219.366 193.05 288.541 193.05 288.541 225.758 219.366 225.758Z" stroke="#002060" stroke-width="0.375949" stroke-linecap="butt" stroke-linejoin="miter" stroke-miterlimit="8" stroke-opacity="1" fill="#0070C0" fill-rule="nonzero" fill-opacity="1" transform="matrix(1 0 0 1.0006 -196.997 -40.627)"/><text fill="#FFFFFF" fill-opacity="1" font-family="Calibri,Calibri_MSFontService,sans-serif" font-style="normal" font-variant="normal" font-weight="400" font-stretch="normal" font-size="28" text-anchor="start" direction="ltr" writing-mode="lr-tb" unicode-bidi="normal" text-decoration="none" transform="matrix(0.375949 0 0 0.376176 31.5064 166)">Web Crypto </text><text fill="#FFFFFF" fill-opacity="1" font-family="Calibri,Calibri_MSFontService,sans-serif" font-style="normal" font-variant="normal" font-weight="400" font-stretch="normal" font-size="28" text-anchor="start" direction="ltr" writing-mode="lr-tb" unicode-bidi="normal" text-decoration="none" transform="matrix(0.375949 0 0 0.376176 39.7285 179)">AES 256</text><path d="M219.366 237.788 288.541 237.788 288.541 270.496 219.366 270.496Z" stroke="#002060" stroke-width="0.375949" stroke-linecap="butt" stroke-linejoin="miter" stroke-miterlimit="8" stroke-opacity="1" fill="#0070C0" fill-rule="nonzero" fill-opacity="1" transform="matrix(1 0 0 1.0006 -196.997 -40.627)"/><text fill="#FFFFFF" fill-opacity="1" font-family="Calibri,Calibri_MSFontService,sans-serif" font-style="normal" font-variant="normal" font-weight="400" font-stretch="normal" font-size="28" text-anchor="start" direction="ltr" writing-mode="lr-tb" unicode-bidi="normal" text-decoration="none" transform="matrix(0.375949 0 0 0.376176 38.6495 217)">Blowfish</text><path d="M307.715 193.05 376.889 193.05 376.889 225.758 307.715 225.758Z" stroke="#002060" stroke-width="0.375949" stroke-linecap="butt" stroke-linejoin="miter" stroke-miterlimit="8" stroke-opacity="1" fill="#0070C0" fill-rule="nonzero" fill-opacity="1" transform="matrix(1 0 0 1.0006 -196.997 -40.627)"/><text fill="#FFFFFF" fill-opacity="1" font-family="Calibri,Calibri_MSFontService,sans-serif" font-style="normal" font-variant="normal" font-weight="400" font-stretch="normal" font-size="28" text-anchor="start" direction="ltr" writing-mode="lr-tb" unicode-bidi="normal" text-decoration="none" transform="matrix(0.375949 0 0 0.376176 125.507 166)">Crypto JS</text><text fill="#FFFFFF" fill-opacity="1" font-family="Calibri,Calibri_MSFontService,sans-serif" font-style="normal" font-variant="normal" font-weight="400" font-stretch="normal" font-size="28" text-anchor="start" direction="ltr" writing-mode="lr-tb" unicode-bidi="normal" text-decoration="none" transform="matrix(0.375949 0 0 0.376176 127.909 179)">AES 256</text><path d="M396.815 238.164 460.35 238.164 460.35 265.984 396.815 265.984Z" stroke="#002060" stroke-width="0.375949" stroke-linecap="butt" stroke-linejoin="miter" stroke-miterlimit="8" stroke-opacity="1" fill="#0070C0" fill-rule="nonzero" fill-opacity="1" transform="matrix(1 0 0 1.0006 -196.997 -40.627)"/><text fill="#FFFFFF" fill-opacity="1" font-family="Calibri,Calibri_MSFontService,sans-serif" font-style="normal" font-variant="normal" font-weight="400" font-stretch="normal" font-size="28" text-anchor="start" direction="ltr" writing-mode="lr-tb" unicode-bidi="normal" text-decoration="none" transform="matrix(0.375949 0 0 0.376176 223.502 215)">Etc.</text><path d="M399.446 242.299 462.982 242.299 462.982 269.744 399.446 269.744Z" stroke="#002060" stroke-width="0.375949" stroke-linecap="butt" stroke-linejoin="miter" stroke-miterlimit="8" stroke-opacity="1" fill="#0070C0" fill-rule="nonzero" fill-opacity="1" transform="matrix(1 0 0 1.0006 -196.997 -40.627)"/><text fill="#FFFFFF" fill-opacity="1" font-family="Calibri,Calibri_MSFontService,sans-serif" font-style="normal" font-variant="normal" font-weight="400" font-stretch="normal" font-size="28" text-anchor="start" direction="ltr" writing-mode="lr-tb" unicode-bidi="normal" text-decoration="none" transform="matrix(0.375949 0 0 0.376176 226.333 219)">Etc.</text><path d="M402.454 246.059 465.989 246.059 465.989 273.879 402.454 273.879Z" stroke="#002060" stroke-width="0.375949" stroke-linecap="butt" stroke-linejoin="miter" stroke-miterlimit="8" stroke-opacity="1" fill="#0070C0" fill-rule="nonzero" fill-opacity="1" transform="matrix(1 0 0 1.0006 -196.997 -40.627)"/><text fill="#FFFFFF" fill-opacity="1" font-family="Calibri,Calibri_MSFontService,sans-serif" font-style="normal" font-variant="normal" font-weight="400" font-stretch="normal" font-size="28" text-anchor="start" direction="ltr" writing-mode="lr-tb" unicode-bidi="normal" text-decoration="none" transform="matrix(0.375949 0 0 0.376176 229.085 223)">etc.</text><path d="M240.796 80.2652 332.151 80.2652 332.151 101.318 240.796 101.318Z" stroke="#002060" stroke-width="0.375949" stroke-linecap="butt" stroke-linejoin="miter" stroke-miterlimit="8" stroke-opacity="1" fill="#00B0F0" fill-rule="nonzero" fill-opacity="1" transform="matrix(1 0 0 1.0006 -196.997 -40.627)"/><text fill="#FFFFFF" fill-opacity="1" font-family="Calibri,Calibri_MSFontService,sans-serif" font-style="normal" font-variant="normal" font-weight="400" font-stretch="normal" font-size="28" text-anchor="start" direction="ltr" writing-mode="lr-tb" unicode-bidi="normal" text-decoration="none" transform="matrix(0.375949 0 0 0.376176 51.3945 53)">Encryption Config</text><path d="M274.631 112.785 280.552 112.785 280.552 106.206 292.395 106.206 292.395 112.785 298.316 112.785 286.473 119.364Z" stroke="#A5A5A5" stroke-width="0.375949" stroke-linecap="butt" stroke-linejoin="miter" stroke-miterlimit="8" stroke-opacity="1" fill="url(#fill1)" fill-rule="evenodd" transform="matrix(1 0 0 1.0006 -196.997 -40.627)"/><path d="M286.849 146.996 286.849 155.397 286.097 155.397 286.097 146.996ZM284.218 147.748 286.473 143.237 288.729 147.748ZM288.729 154.645 286.473 159.157 284.218 154.645Z" fill="#404040" fill-rule="nonzero" fill-opacity="1" transform="matrix(1 0 0 1.0006 -196.997 -40.627)"/><path d="M209.404 41.3544 480.463 41.3544 480.463 61.6557 209.404 61.6557Z" stroke="#002060" stroke-width="0.751899" stroke-linecap="butt" stroke-linejoin="miter" stroke-miterlimit="8" stroke-opacity="1" fill="#00B050" fill-rule="nonzero" fill-opacity="1" transform="matrix(1 0 0 1.0006 -196.997 -40.627)"/><text fill="#FFFFFF" fill-opacity="1" font-family="Calibri,Calibri_MSFontService,sans-serif" font-style="normal" font-variant="normal" font-weight="400" font-stretch="normal" font-size="28" text-anchor="start" direction="ltr" writing-mode="lr-tb" unicode-bidi="normal" text-decoration="none" transform="matrix(0.375949 0 0 0.376176 92.3508 14)">Encrypted  IndexedDB API</text><path d="M376.889 75.0019 447.568 75.0019 447.568 143.425 376.889 143.425Z" stroke="#002060" stroke-width="0.375949" stroke-linecap="butt" stroke-linejoin="miter" stroke-miterlimit="8" stroke-opacity="1" fill="#C55A11" fill-rule="nonzero" fill-opacity="1" transform="matrix(1 0 0 1.0006 -196.997 -40.627)"/><text fill="#FFFFFF" fill-opacity="1" font-family="Calibri,Calibri_MSFontService,sans-serif" font-style="normal" font-variant="normal" font-weight="400" font-stretch="normal" font-size="28" text-anchor="start" direction="ltr" writing-mode="lr-tb" unicode-bidi="normal" text-decoration="none" transform="matrix(0.375949 0 0 0.376176 191.877 59)">Encryption</text><text fill="#FFFFFF" fill-opacity="1" font-family="Calibri,Calibri_MSFontService,sans-serif" font-style="normal" font-variant="normal" font-weight="400" font-stretch="normal" font-size="28" text-anchor="start" direction="ltr" writing-mode="lr-tb" unicode-bidi="normal" text-decoration="none" transform="matrix(0.375949 0 0 0.376176 185.817 72)">Configuration </text><text fill="#FFFFFF" fill-opacity="1" font-family="Calibri,Calibri_MSFontService,sans-serif" font-style="normal" font-variant="normal" font-weight="400" font-stretch="normal" font-size="28" text-anchor="start" direction="ltr" writing-mode="lr-tb" unicode-bidi="normal" text-decoration="none" transform="matrix(0.375949 0 0 0.376176 195.731 85)">Manager</text><path d="M350.573 82.5209 350.573 87.4082 366.363 87.4082 366.363 97.1829 350.573 97.1829 350.573 102.07 340.798 92.2956Z" stroke="#A5A5A5" stroke-width="0.375949" stroke-linecap="butt" stroke-linejoin="miter" stroke-miterlimit="8" stroke-opacity="1" fill="url(#fill2)" fill-rule="evenodd" transform="matrix(1 0 0 1.0006 -196.997 -40.627)"/><path d="M394.935 192.674 464.109 192.674 464.109 225.382 394.935 225.382Z" stroke="#002060" stroke-width="0.375949" stroke-linecap="butt" stroke-linejoin="miter" stroke-miterlimit="8" stroke-opacity="1" fill="#0070C0" fill-rule="nonzero" fill-opacity="1" transform="matrix(1 0 0 1.0006 -196.997 -40.627)"/><text fill="#FFFFFF" fill-opacity="1" font-family="Calibri,Calibri_MSFontService,sans-serif" font-style="normal" font-variant="normal" font-weight="400" font-stretch="normal" font-size="28" text-anchor="start" direction="ltr" writing-mode="lr-tb" unicode-bidi="normal" text-decoration="none" transform="matrix(0.375949 0 0 0.376176 221.633 172)">3DES</text><path d="M307.339 237.788 376.513 237.788 376.513 270.496 307.339 270.496Z" stroke="#002060" stroke-width="0.375949" stroke-linecap="butt" stroke-linejoin="miter" stroke-miterlimit="8" stroke-opacity="1" fill="#0070C0" fill-rule="nonzero" fill-opacity="1" transform="matrix(1 0 0 1.0006 -196.997 -40.627)"/><text fill="#FFFFFF" fill-opacity="1" font-family="Calibri,Calibri_MSFontService,sans-serif" font-style="normal" font-variant="normal" font-weight="400" font-stretch="normal" font-size="28" text-anchor="start" direction="ltr" writing-mode="lr-tb" unicode-bidi="normal" text-decoration="none" transform="matrix(0.375949 0 0 0.376176 126.226 217)">Two Fish</text><path d="M466.177 61.6557 466.177 155.479 465.425 155.479 465.425 61.6557ZM468.057 154.727 465.801 159.238 463.546 154.727Z" fill="#404040" fill-rule="nonzero" fill-opacity="1" transform="matrix(1 0 0 1.0006 -196.997 -40.627)"/><path d="M412.416 61.6557 412.416 71.2202 411.665 71.2202 411.665 61.6557ZM414.296 70.4683 412.04 74.9797 409.785 70.4683Z" fill="#404040" fill-rule="nonzero" fill-opacity="1" transform="matrix(1 0 0 1.0006 -196.997 -40.627)"/><path d="M286.849 60.5278 286.849 76.2331 286.097 76.2331 286.097 60.5278ZM288.729 75.4812 286.473 79.9926 284.218 75.4812Z" fill="#404040" fill-rule="nonzero" fill-opacity="1" transform="matrix(1 0 0 1.0006 -196.997 -40.627)"/></g></svg>