<svg width="336" height="117" xmlns="http://www.w3.org/2000/svg" xmlns:xlink="http://www.w3.org/1999/xlink" xml:space="preserve" overflow="hidden"><defs><clipPath id="clip0"><rect x="0" y="0" width="336" height="117"/></clipPath><linearGradient x1="247.564" y1="55.8614" x2="247.564" y2="74.9901" gradientUnits="userSpaceOnUse" spreadMethod="reflect" id="fill1"><stop offset="0" stop-color="#454545" stop-opacity="1"/><stop offset="0.5" stop-color="#000000" stop-opacity="1"/><stop offset="1" stop-color="#000000" stop-opacity="1"/></linearGradient></defs><g clip-path="url(#clip0)"><path d="M178.951 55.8614 316.178 55.8614 316.178 74.9901 178.951 74.9901Z" stroke="#000000" stroke-width="0.277228" stroke-linecap="butt" stroke-linejoin="miter" stroke-miterlimit="8" stroke-opacity="1" fill="url(#fill1)" fill-rule="nonzero" transform="matrix(1 0 0 1.00008 -80.9505 -55.4502)"/><text fill="#FFFFFF" fill-opacity="1" font-family="Calibri,Calibri_MSFontService,sans-serif" font-style="normal" font-variant="normal" font-weight="400" font-stretch="normal" font-size="36" text-anchor="start" direction="ltr" writing-mode="lr-tb" unicode-bidi="normal" text-decoration="none" transform="matrix(0.277228 0 0 0.277251 149.816 13)">Browser</text><path d="M81.3663 99.6634 189.208 99.6634 189.208 112.97 81.3663 112.97Z" stroke="#4472C4" stroke-width="0.277228" stroke-linecap="butt" stroke-linejoin="miter" stroke-miterlimit="8" stroke-opacity="1" fill="#002060" fill-rule="nonzero" fill-opacity="1" transform="matrix(1 0 0 1.00008 -80.9505 -55.4502)"/><text fill="#FFFFFF" fill-opacity="1" font-family="Calibri,Calibri_MSFontService,sans-serif" font-style="normal" font-variant="normal" font-weight="400" font-stretch="normal" font-size="36" text-anchor="start" direction="ltr" writing-mode="lr-tb" unicode-bidi="normal" text-decoration="none" transform="matrix(0.277228 0 0 0.277251 6.65014 54)">http://site1.com/page1</text><path d="M81.3663 117.96 189.208 117.96 189.208 131.545 81.3663 131.545Z" stroke="#4472C4" stroke-width="0.277228" stroke-linecap="butt" stroke-linejoin="miter" stroke-miterlimit="8" stroke-opacity="1" fill="#002060" fill-rule="nonzero" fill-opacity="1" transform="matrix(1 0 0 1.00008 -80.9505 -55.4502)"/><text fill="#FFFFFF" fill-opacity="1" font-family="Calibri,Calibri_MSFontService,sans-serif" font-style="normal" font-variant="normal" font-weight="400" font-stretch="normal" font-size="36" text-anchor="start" direction="ltr" writing-mode="lr-tb" unicode-bidi="normal" text-decoration="none" transform="matrix(0.277228 0 0 0.277251 6.65014 73)">http://site1.com/page2</text><path d="M193.921 99.6634 301.485 99.6634 301.485 112.97 193.921 112.97Z" stroke="#002060" stroke-width="0.277228" stroke-linecap="butt" stroke-linejoin="miter" stroke-miterlimit="8" stroke-opacity="1" fill="#0070C0" fill-rule="nonzero" fill-opacity="1" transform="matrix(1 0 0 1.00008 -80.9505 -55.4502)"/><text fill="#FFFFFF" fill-opacity="1" font-family="Calibri,Calibri_MSFontService,sans-serif" font-style="normal" font-variant="normal" font-weight="400" font-stretch="normal" font-size="36" text-anchor="start" direction="ltr" writing-mode="lr-tb" unicode-bidi="normal" text-decoration="none" transform="matrix(0.277228 0 0 0.277251 117.128 54)">https://site1.com/page1</text><path d="M193.921 117.96 301.485 117.96 301.485 131.545 193.921 131.545Z" stroke="#002060" stroke-width="0.277228" stroke-linecap="butt" stroke-linejoin="miter" stroke-miterlimit="8" stroke-opacity="1" fill="#0070C0" fill-rule="nonzero" fill-opacity="1" transform="matrix(1 0 0 1.00008 -80.9505 -55.4502)"/><text fill="#FFFFFF" fill-opacity="1" font-family="Calibri,Calibri_MSFontService,sans-serif" font-style="normal" font-variant="normal" font-weight="400" font-stretch="normal" font-size="36" text-anchor="start" direction="ltr" writing-mode="lr-tb" unicode-bidi="normal" text-decoration="none" transform="matrix(0.277228 0 0 0.277251 117.128 73)">https://site1.com/page2</text><path d="M307.584 99.6634 415.426 99.6634 415.426 112.97 307.584 112.97Z" stroke="#002060" stroke-width="0.277228" stroke-linecap="butt" stroke-linejoin="miter" stroke-miterlimit="8" stroke-opacity="1" fill="#00B0F0" fill-rule="nonzero" fill-opacity="1" transform="matrix(1 0 0 1.00008 -80.9505 -55.4502)"/><text fill="#FFFFFF" fill-opacity="1" font-family="Calibri,Calibri_MSFontService,sans-serif" font-style="normal" font-variant="normal" font-weight="400" font-stretch="normal" font-size="36" text-anchor="start" direction="ltr" writing-mode="lr-tb" unicode-bidi="normal" text-decoration="none" transform="matrix(0.277228 0 0 0.277251 230.897 54)">https://site2.com/page1</text><path d="M307.584 117.96 415.426 117.96 415.426 131.545 307.584 131.545Z" stroke="#002060" stroke-width="0.277228" stroke-linecap="butt" stroke-linejoin="miter" stroke-miterlimit="8" stroke-opacity="1" fill="#00B0F0" fill-rule="nonzero" fill-opacity="1" transform="matrix(1 0 0 1.00008 -80.9505 -55.4502)"/><text fill="#FFFFFF" fill-opacity="1" font-family="Calibri,Calibri_MSFontService,sans-serif" font-style="normal" font-variant="normal" font-weight="400" font-stretch="normal" font-size="36" text-anchor="start" direction="ltr" writing-mode="lr-tb" unicode-bidi="normal" text-decoration="none" transform="matrix(0.277228 0 0 0.277251 230.897 73)">https://site2.com/page2</text><path d="M83.5842 146.55C83.5842 148.559 106.794 150.188 135.426 150.188 164.057 150.188 187.267 148.559 187.267 146.55L187.267 168.381C187.267 170.391 164.057 172.02 135.426 172.02 106.794 172.02 83.5842 170.391 83.5842 168.381Z" fill="#002060" fill-rule="evenodd" fill-opacity="1" transform="matrix(1 0 0 1.00008 -80.9505 -55.4502)"/><path d="M83.5842 146.55C83.5842 144.54 106.794 142.911 135.426 142.911 164.057 142.911 187.267 144.54 187.267 146.55 187.267 148.559 164.057 150.188 135.426 150.188 106.794 150.188 83.5842 148.559 83.5842 146.55Z" fill="#6679A0" fill-rule="evenodd" fill-opacity="1" transform="matrix(1 0 0 1.00008 -80.9505 -55.4502)"/><path d="M187.267 146.55C187.267 148.559 164.057 150.188 135.426 150.188 106.794 150.188 83.5842 148.559 83.5842 146.55 83.5842 144.54 106.794 142.911 135.426 142.911 164.057 142.911 187.267 144.54 187.267 146.55L187.267 168.381C187.267 170.391 164.057 172.02 135.426 172.02 106.794 172.02 83.5842 170.391 83.5842 168.381L83.5842 146.55" stroke="#4472C4" stroke-width="0.277228" stroke-linecap="butt" stroke-linejoin="miter" stroke-miterlimit="8" stroke-opacity="1" fill="none" fill-rule="evenodd" transform="matrix(1 0 0 1.00008 -80.9505 -55.4502)"/><text fill="#FFFFFF" fill-opacity="1" font-family="Calibri,Calibri_MSFontService,sans-serif" font-style="normal" font-variant="normal" font-weight="400" font-stretch="normal" font-size="36" text-anchor="start" direction="ltr" writing-mode="lr-tb" unicode-bidi="normal" text-decoration="none" transform="matrix(0.277228 0 0 0.277251 18.3727 107)">Storage Enclave A</text><path d="M196.139 146.55C196.139 148.559 219.349 150.188 247.98 150.188 276.611 150.188 299.822 148.559 299.822 146.55L299.822 168.381C299.822 170.391 276.611 172.02 247.98 172.02 219.349 172.02 196.139 170.391 196.139 168.381Z" fill="#0070C0" fill-rule="evenodd" fill-opacity="1" transform="matrix(1 0 0 1.00008 -80.9505 -55.4502)"/><path d="M196.139 146.55C196.139 144.54 219.349 142.911 247.98 142.911 276.611 142.911 299.822 144.54 299.822 146.55 299.822 148.559 276.611 150.188 247.98 150.188 219.349 150.188 196.139 148.559 196.139 146.55Z" fill="#66A9D9" fill-rule="evenodd" fill-opacity="1" transform="matrix(1 0 0 1.00008 -80.9505 -55.4502)"/><path d="M299.822 146.55C299.822 148.559 276.611 150.188 247.98 150.188 219.349 150.188 196.139 148.559 196.139 146.55 196.139 144.54 219.349 142.911 247.98 142.911 276.611 142.911 299.822 144.54 299.822 146.55L299.822 168.381C299.822 170.391 276.611 172.02 247.98 172.02 219.349 172.02 196.139 170.391 196.139 168.381L196.139 146.55" stroke="#002060" stroke-width="0.277228" stroke-linecap="butt" stroke-linejoin="miter" stroke-miterlimit="8" stroke-opacity="1" fill="none" fill-rule="evenodd" transform="matrix(1 0 0 1.00008 -80.9505 -55.4502)"/><text fill="#FFFFFF" fill-opacity="1" font-family="Calibri,Calibri_MSFontService,sans-serif" font-style="normal" font-variant="normal" font-weight="400" font-stretch="normal" font-size="36" text-anchor="start" direction="ltr" writing-mode="lr-tb" unicode-bidi="normal" text-decoration="none" transform="matrix(0.277228 0 0 0.277251 131.217 107)">Storage Enclave B</text><path d="M309.802 146.55C309.802 148.559 332.951 150.188 361.505 150.188 390.059 150.188 413.208 148.559 413.208 146.55L413.208 168.381C413.208 170.391 390.059 172.02 361.505 172.02 332.951 172.02 309.802 170.391 309.802 168.381Z" fill="#00B0F0" fill-rule="evenodd" fill-opacity="1" transform="matrix(1 0 0 1.00008 -80.9505 -55.4502)"/><path d="M309.802 146.55C309.802 144.54 332.951 142.911 361.505 142.911 390.059 142.911 413.208 144.54 413.208 146.55 413.208 148.559 390.059 150.188 361.505 150.188 332.951 150.188 309.802 148.559 309.802 146.55Z" fill="#66D0F6" fill-rule="evenodd" fill-opacity="1" transform="matrix(1 0 0 1.00008 -80.9505 -55.4502)"/><path d="M413.208 146.55C413.208 148.559 390.059 150.188 361.505 150.188 332.951 150.188 309.802 148.559 309.802 146.55 309.802 144.54 332.951 142.911 361.505 142.911 390.059 142.911 413.208 144.54 413.208 146.55L413.208 168.381C413.208 170.391 390.059 172.02 361.505 172.02 332.951 172.02 309.802 170.391 309.802 168.381L309.802 146.55" stroke="#002060" stroke-width="0.277228" stroke-linecap="butt" stroke-linejoin="miter" stroke-miterlimit="8" stroke-opacity="1" fill="none" fill-rule="evenodd" transform="matrix(1 0 0 1.00008 -80.9505 -55.4502)"/><text fill="#FFFFFF" fill-opacity="1" font-family="Calibri,Calibri_MSFontService,sans-serif" font-style="normal" font-variant="normal" font-weight="400" font-stretch="normal" font-size="36" text-anchor="start" direction="ltr" writing-mode="lr-tb" unicode-bidi="normal" text-decoration="none" transform="matrix(0.277228 0 0 0.277251 244.745 107)">Storage Enclave C</text><path d="M248.094 74.8515 248.094 87.7038 135.287 87.7038 135.842 87.1493 135.842 96.6746 134.733 96.6746 134.733 86.5948 247.539 86.5948 246.985 87.1493 246.985 74.8515ZM136.951 96.1201 135.287 99.4469 133.624 96.1201Z" fill="#595959" fill-rule="nonzero" fill-opacity="1" transform="matrix(1 0 0 1.00008 -80.9505 -55.4502)"/><path d="M0-0.554455 12.8521-0.554455 12.8521 113.911 12.2977 113.357 21.8231 113.357 21.8231 114.466 11.7432 114.466 11.7432 0 12.2977 0.554455 0 0.554455ZM21.2687 112.248 24.5954 113.911 21.2687 115.575Z" fill="#595959" fill-rule="nonzero" fill-opacity="1" transform="matrix(1.83697e-16 1.00008 1 -1.83713e-16 166.614 19.4076)"/><path d="M0-0.554455 12.8521-0.554455 12.8521 0.141364 12.2977-0.413091 21.8231-0.413091 21.8231 0.695819 11.7432 0.695819 11.7432 0 12.2977 0.554455 0 0.554455ZM21.2687-1.522 24.5954 0.141364 21.2687 1.80473Z" fill="#595959" fill-rule="nonzero" fill-opacity="1" transform="matrix(1.83697e-16 1.00008 1 -1.83713e-16 166.614 19.4076)"/><path d="M0.554455-2.10258e-06 0.554489 8.74044-0.554422 8.74044-0.554455 2.10258e-06ZM1.6634 8.18598 4.36578e-05 11.5127-1.66334 8.18601Z" fill="#595959" fill-rule="nonzero" fill-opacity="1" transform="matrix(-1 0 0 1.00008 54.3366 75.9668)"/><path d="M248.119 131.393 248.329 140.134 247.221 140.161 247.01 131.419ZM249.424 139.553 247.842 142.919 246.099 139.633Z" fill="#595959" fill-rule="nonzero" fill-opacity="1" transform="matrix(1 0 0 1.00008 -80.9505 -55.4502)"/><path d="M361.782 131.406 361.782 140.146 360.673 140.146 360.673 131.406ZM362.891 139.592 361.228 142.919 359.564 139.592Z" fill="#595959" fill-rule="nonzero" fill-opacity="1" transform="matrix(1 0 0 1.00008 -80.9505 -55.4502)"/></g></svg>